<mxfile host="app.diagrams.net" modified="2024-04-04T11:38:15.675Z" agent="Mozilla/5.0 (Windows NT 10.0; Win64; x64) AppleWebKit/537.36 (KHTML, like Gecko) Chrome/123.0.0.0 Safari/537.36" version="24.2.1" etag="U7PDddchJue9TUvu4KyY" type="github">
  <diagram name="Page-1" id="lq85MURMbKGMyKU7ltUY">
    <mxGraphModel>
      <root>
        <mxCell id="0" />
        <mxCell id="1" parent="0" />
      </root>
    </mxGraphModel>
  </diagram>
</mxfile>
